<svg id="wave" style="transform:rotate(180deg); transition: 0.3s" viewBox="0 0 1440 490" version="1.1" xmlns="http://www.w3.org/2000/svg"><defs><linearGradient id="sw-gradient-0" x1="0" x2="0" y1="1" y2="0"><stop stop-color="rgba(243, 106, 62, 1)" offset="0%"></stop><stop stop-color="rgba(250.591, 11, 255, 1)" offset="100%"></stop></linearGradient></defs><path style="transform:translate(0, 0px); opacity:1" fill="url(#sw-gradient-0)" d="M0,343L10,318.5C20,294,40,245,60,220.5C80,196,100,196,120,187.8C140,180,160,163,180,187.8C200,212,220,278,240,318.5C260,359,280,376,300,343C320,310,340,229,360,236.8C380,245,400,343,420,318.5C440,294,460,147,480,130.7C500,114,520,229,540,285.8C560,343,580,343,600,318.5C620,294,640,245,660,261.3C680,278,700,359,720,392C740,425,760,408,780,383.8C800,359,820,327,840,334.8C860,343,880,392,900,416.5C920,441,940,441,960,400.2C980,359,1000,278,1020,245C1040,212,1060,229,1080,261.3C1100,294,1120,343,1140,310.3C1160,278,1180,163,1200,130.7C1220,98,1240,147,1260,147C1280,147,1300,98,1320,98C1340,98,1360,147,1380,179.7C1400,212,1420,229,1430,236.8L1440,245L1440,490L1430,490C1420,490,1400,490,1380,490C1360,490,1340,490,1320,490C1300,490,1280,490,1260,490C1240,490,1220,490,1200,490C1180,490,1160,490,1140,490C1120,490,1100,490,1080,490C1060,490,1040,490,1020,490C1000,490,980,490,960,490C940,490,920,490,900,490C880,490,860,490,840,490C820,490,800,490,780,490C760,490,740,490,720,490C700,490,680,490,660,490C640,490,620,490,600,490C580,490,560,490,540,490C520,490,500,490,480,490C460,490,440,490,420,490C400,490,380,490,360,490C340,490,320,490,300,490C280,490,260,490,240,490C220,490,200,490,180,490C160,490,140,490,120,490C100,490,80,490,60,490C40,490,20,490,10,490L0,490Z"></path><defs><linearGradient id="sw-gradient-1" x1="0" x2="0" y1="1" y2="0"><stop stop-color="rgba(243, 106, 62, 1)" offset="0%"></stop><stop stop-color="rgba(255, 179, 11, 1)" offset="100%"></stop></linearGradient></defs><path style="transform:translate(0, 50px); opacity:0.9" fill="url(#sw-gradient-1)" d="M0,147L10,122.5C20,98,40,49,60,65.3C80,82,100,163,120,220.5C140,278,160,310,180,269.5C200,229,220,114,240,114.3C260,114,280,229,300,245C320,261,340,180,360,171.5C380,163,400,229,420,269.5C440,310,460,327,480,318.5C500,310,520,278,540,236.8C560,196,580,147,600,171.5C620,196,640,294,660,285.8C680,278,700,163,720,138.8C740,114,760,180,780,196C800,212,820,180,840,204.2C860,229,880,310,900,326.7C920,343,940,294,960,236.8C980,180,1000,114,1020,130.7C1040,147,1060,245,1080,261.3C1100,278,1120,212,1140,155.2C1160,98,1180,49,1200,57.2C1220,65,1240,131,1260,187.8C1280,245,1300,294,1320,334.8C1340,376,1360,408,1380,400.2C1400,392,1420,343,1430,318.5L1440,294L1440,490L1430,490C1420,490,1400,490,1380,490C1360,490,1340,490,1320,490C1300,490,1280,490,1260,490C1240,490,1220,490,1200,490C1180,490,1160,490,1140,490C1120,490,1100,490,1080,490C1060,490,1040,490,1020,490C1000,490,980,490,960,490C940,490,920,490,900,490C880,490,860,490,840,490C820,490,800,490,780,490C760,490,740,490,720,490C700,490,680,490,660,490C640,490,620,490,600,490C580,490,560,490,540,490C520,490,500,490,480,490C460,490,440,490,420,490C400,490,380,490,360,490C340,490,320,490,300,490C280,490,260,490,240,490C220,490,200,490,180,490C160,490,140,490,120,490C100,490,80,490,60,490C40,490,20,490,10,490L0,490Z"></path><defs><linearGradient id="sw-gradient-2" x1="0" x2="0" y1="1" y2="0"><stop stop-color="rgba(62, 243, 80.499, 1)" offset="0%"></stop><stop stop-color="rgba(81.991, 196.221, 46.59, 1)" offset="100%"></stop></linearGradient></defs><path style="transform:translate(0, 100px); opacity:0.8" fill="url(#sw-gradient-2)" d="M0,343L10,334.8C20,327,40,310,60,253.2C80,196,100,98,120,81.7C140,65,160,131,180,187.8C200,245,220,294,240,302.2C260,310,280,278,300,236.8C320,196,340,147,360,163.3C380,180,400,261,420,285.8C440,310,460,278,480,220.5C500,163,520,82,540,57.2C560,33,580,65,600,98C620,131,640,163,660,171.5C680,180,700,163,720,187.8C740,212,760,278,780,326.7C800,376,820,408,840,375.7C860,343,880,245,900,196C920,147,940,147,960,187.8C980,229,1000,310,1020,302.2C1040,294,1060,196,1080,187.8C1100,180,1120,261,1140,277.7C1160,294,1180,245,1200,196C1220,147,1240,98,1260,122.5C1280,147,1300,245,1320,285.8C1340,327,1360,310,1380,285.8C1400,261,1420,229,1430,212.3L1440,196L1440,490L1430,490C1420,490,1400,490,1380,490C1360,490,1340,490,1320,490C1300,490,1280,490,1260,490C1240,490,1220,490,1200,490C1180,490,1160,490,1140,490C1120,490,1100,490,1080,490C1060,490,1040,490,1020,490C1000,490,980,490,960,490C940,490,920,490,900,490C880,490,860,490,840,490C820,490,800,490,780,490C760,490,740,490,720,490C700,490,680,490,660,490C640,490,620,490,600,490C580,490,560,490,540,490C520,490,500,490,480,490C460,490,440,490,420,490C400,490,380,490,360,490C340,490,320,490,300,490C280,490,260,490,240,490C220,490,200,490,180,490C160,490,140,490,120,490C100,490,80,490,60,490C40,490,20,490,10,490L0,490Z"></path><defs><linearGradient id="sw-gradient-3" x1="0" x2="0" y1="1" y2="0"><stop stop-color="rgba(243, 106, 62, 1)" offset="0%"></stop><stop stop-color="rgba(255, 179, 11, 1)" offset="100%"></stop></linearGradient></defs><path style="transform:translate(0, 150px); opacity:0.7" fill="url(#sw-gradient-3)" d="M0,98L10,147C20,196,40,294,60,310.3C80,327,100,261,120,269.5C140,278,160,359,180,334.8C200,310,220,180,240,106.2C260,33,280,16,300,32.7C320,49,340,98,360,122.5C380,147,400,147,420,196C440,245,460,343,480,318.5C500,294,520,147,540,114.3C560,82,580,163,600,196C620,229,640,212,660,228.7C680,245,700,294,720,318.5C740,343,760,343,780,285.8C800,229,820,114,840,98C860,82,880,163,900,204.2C920,245,940,245,960,277.7C980,310,1000,376,1020,400.2C1040,425,1060,408,1080,351.2C1100,294,1120,196,1140,155.2C1160,114,1180,131,1200,163.3C1220,196,1240,245,1260,236.8C1280,229,1300,163,1320,179.7C1340,196,1360,294,1380,326.7C1400,359,1420,327,1430,310.3L1440,294L1440,490L1430,490C1420,490,1400,490,1380,490C1360,490,1340,490,1320,490C1300,490,1280,490,1260,490C1240,490,1220,490,1200,490C1180,490,1160,490,1140,490C1120,490,1100,490,1080,490C1060,490,1040,490,1020,490C1000,490,980,490,960,490C940,490,920,490,900,490C880,490,860,490,840,490C820,490,800,490,780,490C760,490,740,490,720,490C700,490,680,490,660,490C640,490,620,490,600,490C580,490,560,490,540,490C520,490,500,490,480,490C460,490,440,490,420,490C400,490,380,490,360,490C340,490,320,490,300,490C280,490,260,490,240,490C220,490,200,490,180,490C160,490,140,490,120,490C100,490,80,490,60,490C40,490,20,490,10,490L0,490Z"></path></svg>